<svg xmlns="http://www.w3.org/2000/svg" viewBox="0 0 893.74 280.57"><defs><style>.cls-1{fill:#242358;}</style></defs><g id="Layer_2" data-name="Layer 2"><g id="Layer_1-2" data-name="Layer 1"><path class="cls-1" d="M666.45,172.07q-5.31,14.85-10.62,29.72c-7.42,20.93-14.88,41.85-22.18,62.83-1.41,4-4,5.94-8.09,6h-.5c-18.91.25-15.67-.59-20.3-14-9.62-27.89-19.22-55.79-29.91-83.73v4.89q0,42.42,0,84.85c0,6.41-1.29,7.71-7.83,8-14.77.68-15,.43-15-14.11q0-46.92,0-93.84c0-9.38,2.35-11.67,11.83-11.68,4.83,0,9.66,0,14.49,0,9.37.09,13.43,3.12,16.63,12q11.84,33,23.79,66c.71,2,1.51,3.9,2.68,6.89,4.69-12.39,9-23.68,13.23-35,4.88-13,9.66-26.13,14.55-39.18C652.26,153.51,656,151,665.05,151c5,0,10,0,15,0,7.26.05,10,2.62,10,9.9.06,23.13,0,46.26,0,69.38,0,11.32-.17,22.64.09,33.94.1,4.11-1.7,5.73-5.32,6.22-.82.11-1.65.15-2.49.18-14.63.57-14.63.57-14.63-13.93V172.36Z"/><path class="cls-1" d="M270.2,197.64h44.54c.09-1.91.22-3.53.23-5.15,0-12,.17-24-.06-35.94-.08-4,1.45-5.85,5.19-6.29,1-.12,2-.22,3-.25,15.74-.47,15.74-.47,15.74,15.12q0,48.66,0,97.32c0,6.59-1.09,7.74-7.71,8.17-15.6,1-16.12.53-16.12-15q0-15.48,0-30.95V219H270.2v5.56c0,13.14-.15,26.29.09,39.43.07,4-1.45,6.1-5.2,6.25a138.55,138.55,0,0,1-14.41-.16c-3.06-.2-4.5-2-4.49-5.38q.12-54.4,0-108.81c0-3.36,1.49-4.87,4.51-5.4a29.79,29.79,0,0,1,3-.45c15.87-1.15,16.55-.52,16.55,15.08Z"/><path class="cls-1" d="M270.2,56.94H315v-5.5c0-12,.11-24-.09-35.93-.07-3.79,1.45-5.76,5-5.94a133.89,133.89,0,0,1,13.44,0c4,.2,5.68,2.39,5.57,6.59-.24,9.64-.08,19.3-.08,29,0,25.79-.12,51.58.11,77.36.05,5.07-2.15,7-6.59,7.27a102.24,102.24,0,0,1-11.48,0c-4-.25-6.1-1.94-6-6.63.32-13,.11-25.95.11-38.93v-5.8H270.2v5.22c0,13.31-.13,26.62.09,39.92.07,3.83-1.39,5.55-4.94,6-1,.12-2,.35-3,.4-15.79.86-16.15.52-16.15-15.1V16.89c0-5.86,1-7.17,6.64-7.52a97.54,97.54,0,0,1,12.44.28c3.54.24,5,2.09,5,5.93-.24,11.81-.09,23.62-.09,35.44Z"/><path class="cls-1" d="M408.93,9.21c14.9,0,14.94,0,19.8,14q16.57,47.7,33.06,95.44c3.48,10.09,2.69,11.16-7.91,11.18-17.37,0-14,.61-18.91-13.45-1.63-4.68-2.05-11.22-5.36-13.49-3.56-2.44-9.88-1-15-1-8.16-.08-16.32.18-24.47-.11-3.47-.13-5,1-6,4.26-1.76,6.22-3.77,12.38-6,18.45-.62,1.7-2.14,4.2-3.43,4.32A114.33,114.33,0,0,1,357,129c-.79-.06-2.34-3.86-1.86-5.41,3.35-10.94,7.1-21.75,10.81-32.57,8.49-24.79,17.19-49.51,25.44-74.37,1.85-5.59,5-7.78,10.52-7.48C404.26,9.32,406.6,9.22,408.93,9.21Zm15.55,73.71c-5.55-16.88-10.9-33.18-16.26-49.48l-1.06.18-16.05,49.3Z"/><path class="cls-1" d="M802.07,270.63c-14.79.27-12.11-1.07-15.62-11.1-1.48-4.22-3.05-8.43-4.18-12.75-.8-3.09-2.2-4.24-5.5-4.18q-18.22.28-36.46,0c-3,0-4.45.88-5.29,3.79-1.83,6.37-3.84,12.71-6.14,18.92-.66,1.78-2.44,4.26-3.92,4.43a92.67,92.67,0,0,1-16.82.36c-3.3-.24-3.31-3.17-2.43-5.82,2.94-8.8,5.85-17.62,8.87-26.39,9.26-27,18.72-53.89,27.74-80.94,1.77-5.29,4.79-7.07,9.86-7,5.32.1,10.65,0,16,.06,4.41.07,7.13,1.86,8.7,6.48,11.76,34.53,23.82,69,35.73,103.44,3.3,9.54,2.46,10.63-7.53,10.66Zm-26.9-46.92c-5.58-17-10.93-33.31-16.75-51l-16.6,51Z"/><path class="cls-1" d="M504.2,62.38q15.6-22.82,31.19-45.61c4.78-7,18.74-10.47,26.14-6.39,3.29,1.81,2.57,4.45,1,6.78-4.83,7-9.8,13.81-14.85,20.62-5.84,7.87-11.72,15.73-17.8,23.43-2,2.48-2.13,4.22-.31,6.94,10.45,15.6,20.69,31.33,31,47a59.79,59.79,0,0,1,3.3,5.56c3.07,6.06,1.76,8.48-5.15,9a114,114,0,0,1-12,0c-3.91-.13-6.66-2-8.81-5.46-10.23-16.53-20.67-32.93-31.05-49.37-.87-1.38-1.82-2.71-3.48-5.17-.16,2.72-.32,4.24-.32,5.76,0,15.64-.22,31.29.11,46.92.11,5.11-2.13,6.88-6.55,7.32l-.5,0c-15.65,1.44-17,.2-17-15.25q0-48.91,0-97.83c0-5.73,1-7,6.79-7.38a91.68,91.68,0,0,1,12,.22c3.66.26,5.37,2.07,5.3,6.17-.25,13.81-.09,27.62-.09,41.43V62Z"/><path class="cls-1" d="M481.81,250.86h15.63c8.82,0,17.65-.15,26.46.07,3.28.09,8.92.29,9.37,1.73,1.36,4.36,1,9.36.67,14.08-.06,1-2.47,2.76-3.81,2.77-23.14.16-46.28.14-69.42.08-4.12,0-6.41-2.27-6.76-6.44-.53-6.44.38-12.36,4-18.06,14.95-23.57,29.63-47.31,44.39-71,.69-1.11,1.33-2.24,2.33-3.93-1.82-.15-3.19-.37-4.56-.37-12.82,0-25.64-.19-38.46.07-4.42.08-6-2-6.33-5.8a44.8,44.8,0,0,1-.15-4.49c.09-7.55,1.11-8.57,8.6-8.57q30,0,59.92,0c6.58,0,8.19,1.65,8.49,8.17a30.39,30.39,0,0,1-4.73,18.42c-14.68,23.14-29.07,46.47-43.55,69.72C483.36,248.16,482.88,249,481.81,250.86Z"/><path class="cls-1" d="M401.44,201.37c6.63-15.17,13.33-30.14,19.66-45.26,1.84-4.38,4.68-6.15,9.13-6.11s8.67-.18,13,.14c4.57.34,5.62,2.06,3.69,6.2-4,8.56-8.3,17-12.5,25.47-6.42,12.93-13,25.79-19.19,38.81a22.51,22.51,0,0,0-2.12,8.95c-.24,11.47-.28,23,0,34.42.11,4.13-1.71,5.73-5.28,6.34-.65.11-1.31.2-2,.25-15.85,1.38-17.85.36-16.69-15.2,1.56-20.94-2.75-39.79-13.6-57.82-7.51-12.46-13.21-26-19.65-39.13-3.25-6.62-2.22-8.39,5-8.4,21.08,0,16.89-1.61,24.9,15.72C391.2,177.47,396.19,189.39,401.44,201.37Z"/><path class="cls-1" d="M836.05,170.78c-9.53,0-18.32-.2-27.1.09-4,.12-5.37-1.79-5.9-5.11a21.11,21.11,0,0,1-.19-3c-.24-11.4.12-11.77,11.21-11.77,24.28,0,48.57.13,72.85-.12,4.68,0,6.24,1.94,6.61,6,0,.33,0,.66,0,1,.66,12.2,0,12.93-12,12.94q-9.72,0-19.45.08a10.26,10.26,0,0,0-1.68.51v91.28c0,6.29-1.12,7.56-7.39,7.92a88.17,88.17,0,0,1-9.48,0c-6.24-.33-7.44-1.68-7.44-7.92q0-42.87,0-85.76Z"/><path class="cls-1" d="M55.59,58c12.89-19.8,25-38.4,37.75-58l37.54,57.68-4.13-1.25c-10-2.94-19.4,4-19.47,14.53-.1,14.64,0,29.28,0,43.91,0,47.74.12,95.47-.1,143.21-.05,8.9,2.92,15.09,12.79,18.64-18.13,5.22-34.88,5-53.39.06,11.82-3.59,13.28-11.56,13.25-21.07-.2-60.54-.37-121.08.12-181.62C80,62,71.32,51.73,55.59,58Z"/><path class="cls-1" d="M49.83,178.48H41.42c0-11.95.07-23.71,0-35.47-.07-8.38-5.16-14.94-13-15.77-3.54-.38-7.27,1-12.07,1.76L48.61,69.36l1.22.53Z"/><path class="cls-1" d="M145.51,178.57h-8V71l1.2-.55,31.45,58.19c-4.78-.52-8.72-1.76-12.37-1.19-7.76,1.22-12.16,7.55-12.24,16.4-.09,9.65,0,19.3,0,29Z"/><path class="cls-1" d="M41.43,201.12h8.64v8.13c0,15.63-.1,31.27.06,46.9,0,4.69.79,9.37,1.2,13.88-7.63-1.27-27.1-16.93-31.68-26a9.82,9.82,0,0,1,2,0c11.5,2.57,19.67-3.87,19.8-15.73C41.51,219.34,41.43,210.39,41.43,201.12Z"/><path class="cls-1" d="M137.14,201.07h8.37c0,9,0,17.72,0,26.48,0,5.18,1.19,9.85,5.26,13.46,4.51,4,8.89,4.68,16.77,2.48-4.07,8.39-21.08,22.6-32.39,27.05,4-16.78,1.2-33.83,2-50.74C137.37,213.7,137.14,207.57,137.14,201.07Z"/><path class="cls-1" d="M11.2,143.85v86.68C-3.65,216.78-3.81,167.94,11.2,143.85Z"/><path class="cls-1" d="M175.53,231.7V144.33C190.7,164.8,191,206.9,175.53,231.7Z"/></g></g></svg>